<?xml version="1.0" encoding="UTF-8"?>
<!DOCTYPE svg PUBLIC "-//W3C//DTD SVG 1.1//EN" "http://www.w3.org/Graphics/SVG/1.1/DTD/svg11.dtd">

<svg xmlns="http://www.w3.org/2000/svg" xmlns:xlink="http://www.w3.org/1999/xlink" width="304px" height="304px" viewbox="0 0 304 304" version="1.1">
  <title>LMR14020_30_50_BUCK_DDA_A_bottom: null</title>
  <desc>LMR14020_30_50_BUCK_DDA_A WebTHERM&amp;reg; Board Layout file</desc>
  <g id="board" fill-opacity="1" transform="scale(0.1016,-0.1016) translate(0,-3000.0)">
    <rect x="0" y="0" width="3000" height="3000" stroke="#006600" stroke-width="0" fill="#006600" type="Fill" layer="PCB" />
    <polygon net="1" points="1650,2340 50,2340 50,2710 1650,2710" stroke-width="0.0" stroke="#ff9900" fill="#ff9900" stroke-linecap="round" stroke-linejoin="round" opacity="1.0" layer="BOTTOM" />
    <polygon net="7" points="1500,730 50,730 50,1350 1500,1350" stroke-width="0.0" stroke="#ff9900" fill="#ff9900" stroke-linecap="round" stroke-linejoin="round" opacity="1.0" layer="BOTTOM" />
    <polygon net="0" points="2960,40 50,40 50,720 1510,720 1510,1360 50,1360 50,2320 1670,2320 1670,2720 243,2720 241,2726 240,2730 250,2741 257,2755 261,2768 1923,2768 2108,2583 2108,1229 2107,1229 2100,1224 2095,1217 2091,1208 2090,1200 2091,1191 2095,1182 2100,1175 2107,1170 2116,1166 2125,1165 2133,1166 2142,1170 2149,1175 2154,1182 2158,1191 2159,1200 2158,1208 2154,1217 2149,1224 2142,1229 2141,1229 2141,2590 2140,2596 2136,2601 1941,2796 1936,2800 1930,2801 261,2801 257,2814 250,2828 240,2840 228,2850 214,2857 200,2861 185,2863 169,2861 155,2857 141,2850 129,2840 119,2828 112,2814 108,2800 106,2785 108,2769 112,2755 119,2741 129,2730 128,2726 126,2720 50,2720 50,2960 2960,2960" stroke-width="0.0" stroke="#ff9900" fill="#ff9900" stroke-linecap="round" stroke-linejoin="round" opacity="1.0" layer="BOTTOM" />
    <polygon net="0" points="1580,1445 1571,1443 1564,1438 1559,1431 1557,1423 1559,1414 1564,1407 1571,1402 1573,1401 1589,1386 1595,1382 1603,1380 2029,1380 2031,1379 2040,1377 2048,1379 2055,1384 2060,1391 2062,1400 2060,1408 2055,1415 2048,1420 2040,1422 2031,1420 2029,1419 1611,1419 1601,1429 1600,1431 1595,1438 1588,1443" stroke-width="0.0" stroke="#006600" fill="#006600" stroke-linecap="round" stroke-linejoin="round" opacity="1.0" layer="BOTTOM" />
    <polygon net="0" points="1635,993 1619,991 1605,987 1591,980 1579,970 1569,958 1562,944 1558,930 1556,915 1558,899 1562,885 1569,871 1579,859 1591,849 1605,842 1619,838 1635,836 1650,838 1664,842 1678,849 1690,859 1700,871 1707,885 1711,899 1713,915 1711,930 1707,944 1700,958 1690,970 1678,980 1664,987 1650,991" stroke-width="0.0" stroke="#006600" fill="#006600" stroke-linecap="round" stroke-linejoin="round" opacity="1.0" layer="BOTTOM" />
    <line net="10" x1="1603" y1="1400" x2="2040" y2="1400" stroke-width="20" stroke="#ff9900" stroke-linecap="round" stroke-linejoin="round" opacity="1.0" layer="BOTTOM" />
    <line net="10" x1="1580" y1="1423" x2="1603" y2="1400" stroke-width="20" stroke="#ff9900" stroke-linecap="round" stroke-linejoin="round" opacity="1.0" layer="BOTTOM" />
    <line net="1" x1="1930" y1="2785" x2="2125" y2="2590" stroke-width="15" stroke="#ff9900" stroke-linecap="round" stroke-linejoin="round" opacity="1.0" layer="BOTTOM" />
    <line net="1" x1="185" y1="2785" x2="1930" y2="2785" stroke-width="15" stroke="#ff9900" stroke-linecap="round" stroke-linejoin="round" opacity="1.0" layer="BOTTOM" />
    <line net="1" x1="2125" y1="1200" x2="2125" y2="2590" stroke-width="15" stroke="#ff9900" stroke-linecap="round" stroke-linejoin="round" opacity="1.0" layer="BOTTOM" />
    <line net="0" x1="1910" y1="980" x2="2005" y2="980" stroke-width="15" stroke="#ff9900" stroke-linecap="round" stroke-linejoin="round" opacity="1.0" layer="BOTTOM" />
    <line net="0" x1="2005" y1="980" x2="2050" y2="1025" stroke-width="15" stroke="#ff9900" stroke-linecap="round" stroke-linejoin="round" opacity="1.0" layer="BOTTOM" />
    <line net="0" x1="2050" y1="1025" x2="2050" y2="1280" stroke-width="15" stroke="#ff9900" stroke-linecap="round" stroke-linejoin="round" opacity="1.0" layer="BOTTOM" />
    <circle net="10" cx="1580" cy="1423" r="9" r1="13" r2="5" stroke-width="8" stroke="#ff9900" fill="#ffffff" opacity="1" layer="MULTILAYER" />
    <circle net="0" cx="2050" cy="1280" r="17" r1="25" r2="10" stroke-width="15" stroke="#ff9900" fill="#ffffff" opacity="1" layer="MULTILAYER" />
    <circle net="0" cx="1910" cy="980" r="17" r1="25" r2="10" stroke-width="15" stroke="#ff9900" fill="#ffffff" opacity="1" layer="MULTILAYER" />
    <circle net="0" cx="1260" cy="2090" r="9.2" r1="12" r2="6" stroke-width="5" stroke="#ff9900" fill="#ffffff" opacity="1" layer="MULTILAYER" />
    <circle net="1" cx="1365" cy="2555" r="9.2" r1="12" r2="6" stroke-width="5" stroke="#ff9900" fill="#ffffff" opacity="1" layer="MULTILAYER" />
    <circle net="7" cx="1005" cy="1075" r="9.2" r1="12" r2="6" stroke-width="5" stroke="#ff9900" fill="#ffffff" opacity="1" layer="MULTILAYER" />
    <circle net="7" cx="1060" cy="1075" r="9.2" r1="12" r2="6" stroke-width="5" stroke="#ff9900" fill="#ffffff" opacity="1" layer="MULTILAYER" />
    <circle net="7" cx="1115" cy="1075" r="9.2" r1="12" r2="6" stroke-width="5" stroke="#ff9900" fill="#ffffff" opacity="1" layer="MULTILAYER" />
    <circle net="7" cx="1175" cy="1075" r="9.2" r1="12" r2="6" stroke-width="5" stroke="#ff9900" fill="#ffffff" opacity="1" layer="MULTILAYER" />
    <circle net="7" cx="1225" cy="1075" r="9.2" r1="12" r2="6" stroke-width="5" stroke="#ff9900" fill="#ffffff" opacity="1" layer="MULTILAYER" />
    <circle net="7" cx="1275" cy="1075" r="9.2" r1="12" r2="6" stroke-width="5" stroke="#ff9900" fill="#ffffff" opacity="1" layer="MULTILAYER" />
    <circle net="0" cx="965" cy="2085" r="9.2" r1="12" r2="6" stroke-width="5" stroke="#ff9900" fill="#ffffff" opacity="1" layer="MULTILAYER" />
    <circle net="0" cx="1025" cy="2085" r="9.2" r1="12" r2="6" stroke-width="5" stroke="#ff9900" fill="#ffffff" opacity="1" layer="MULTILAYER" />
    <circle net="0" cx="900" cy="2085" r="9.2" r1="12" r2="6" stroke-width="5" stroke="#ff9900" fill="#ffffff" opacity="1" layer="MULTILAYER" />
    <circle net="1" cx="950" cy="2555" r="9.2" r1="12" r2="6" stroke-width="5" stroke="#ff9900" fill="#ffffff" opacity="1" layer="MULTILAYER" />
    <circle net="1" cx="1005" cy="2555" r="9.2" r1="12" r2="6" stroke-width="5" stroke="#ff9900" fill="#ffffff" opacity="1" layer="MULTILAYER" />
    <circle net="1" cx="895" cy="2555" r="9.2" r1="12" r2="6" stroke-width="5" stroke="#ff9900" fill="#ffffff" opacity="1" layer="MULTILAYER" />
    <circle net="1" cx="1315" cy="2555" r="9.2" r1="12" r2="6" stroke-width="5" stroke="#ff9900" fill="#ffffff" opacity="1" layer="MULTILAYER" />
    <circle net="1" cx="1265" cy="2555" r="9.2" r1="12" r2="6" stroke-width="5" stroke="#ff9900" fill="#ffffff" opacity="1" layer="MULTILAYER" />
    <circle net="1" cx="1435" cy="2555" r="9.2" r1="12" r2="6" stroke-width="5" stroke="#ff9900" fill="#ffffff" opacity="1" layer="MULTILAYER" />
    <circle net="1" cx="1485" cy="2555" r="9.2" r1="12" r2="6" stroke-width="5" stroke="#ff9900" fill="#ffffff" opacity="1" layer="MULTILAYER" />
    <circle net="1" cx="1530" cy="2555" r="9.2" r1="12" r2="6" stroke-width="5" stroke="#ff9900" fill="#ffffff" opacity="1" layer="MULTILAYER" />
    <circle net="0" cx="1300" cy="2090" r="9.2" r1="12" r2="6" stroke-width="5" stroke="#ff9900" fill="#ffffff" opacity="1" layer="MULTILAYER" />
    <circle net="0" cx="1345" cy="2090" r="9.2" r1="12" r2="6" stroke-width="5" stroke="#ff9900" fill="#ffffff" opacity="1" layer="MULTILAYER" />
    <circle net="0" cx="1480" cy="2090" r="9.2" r1="12" r2="6" stroke-width="5" stroke="#ff9900" fill="#ffffff" opacity="1" layer="MULTILAYER" />
    <circle net="0" cx="1525" cy="2090" r="9.2" r1="12" r2="6" stroke-width="5" stroke="#ff9900" fill="#ffffff" opacity="1" layer="MULTILAYER" />
    <circle net="0" cx="1440" cy="2090" r="9.2" r1="12" r2="6" stroke-width="5" stroke="#ff9900" fill="#ffffff" opacity="1" layer="MULTILAYER" />
    <circle net="0" cx="1654" cy="1305" r="6" r1="9" r2="3" stroke-width="5" stroke="#ff9900" fill="#ffffff" opacity="1" layer="MULTILAYER" />
    <circle net="0" cx="1654" cy="1356" r="6" r1="9" r2="3" stroke-width="5" stroke="#ff9900" fill="#ffffff" opacity="1" layer="MULTILAYER" />
    <circle net="0" cx="1654" cy="1253" r="6" r1="9" r2="3" stroke-width="5" stroke="#ff9900" fill="#ffffff" opacity="1" layer="MULTILAYER" />
    <circle net="0" cx="1705" cy="1253" r="6" r1="9" r2="3" stroke-width="5" stroke="#ff9900" fill="#ffffff" opacity="1" layer="MULTILAYER" />
    <circle net="0" cx="1705" cy="1356" r="6" r1="9" r2="3" stroke-width="5" stroke="#ff9900" fill="#ffffff" opacity="1" layer="MULTILAYER" />
    <circle net="0" cx="1705" cy="1305" r="6" r1="9" r2="3" stroke-width="5" stroke="#ff9900" fill="#ffffff" opacity="1" layer="MULTILAYER" />
    <circle net="1" cx="2125" cy="1200" r="17" r1="25" r2="10" stroke-width="15" stroke="#ff9900" fill="#ffffff" opacity="1" layer="MULTILAYER" />
    <circle net="10" cx="2040" cy="1400" r="9" r1="13" r2="5" stroke-width="8" stroke="#ff9900" fill="#ffffff" opacity="1" layer="MULTILAYER" />
    <circle net="0" cx="185" cy="1895" r="58.8" r1="68" r2="49" stroke-width="19" stroke="#ff9900" fill="#ffffff" opacity="1" layer="MULTILAYER" />
    <circle net="7" cx="195" cy="1215" r="58.8" r1="68" r2="49" stroke-width="19" stroke="#ff9900" fill="#ffffff" opacity="1" layer="MULTILAYER" />
    <circle net="0" cx="195" cy="1545" r="58.8" r1="68" r2="49" stroke-width="19" stroke="#ff9900" fill="#ffffff" opacity="1" layer="MULTILAYER" />
    <circle net="1" cx="185" cy="2785" r="58.8" r1="68" r2="49" stroke-width="19" stroke="#ff9900" fill="#ffffff" opacity="1" layer="MULTILAYER" />
    <circle net="2" cx="1635" cy="915" r="58.8" r1="68" r2="49" stroke-width="19" stroke="#ff9900" fill="#ffffff" opacity="1" layer="MULTILAYER" />
  </g>
</svg>

